<svg width="32" height="33" viewBox="0 0 32 33" fill="none" xmlns="http://www.w3.org/2000/svg">
<rect x="0.5" y="0.707397" width="31" height="31" rx="15.5" fill="#42B87E"/>
<rect x="0.5" y="0.707397" width="31" height="31" rx="15.5" stroke="#C8C8C8"/>
<path d="M7.525 17.0374V15.5374H10.48V12.4924H12.04V15.5374H15.01V17.0374H12.04V20.0824H10.48V17.0374H7.525ZM19.815 21.4324C18.515 21.4324 17.52 21.1024 16.83 20.4424C16.14 19.7724 15.785 18.8624 15.765 17.7124H17.715C17.795 19.1024 18.47 19.7974 19.74 19.7974C20.31 19.7974 20.755 19.6524 21.075 19.3624C21.395 19.0624 21.555 18.6524 21.555 18.1324C21.555 17.6324 21.395 17.2424 21.075 16.9624C20.755 16.6824 20.285 16.5424 19.665 16.5424H19.035V14.9974H19.62C20.12 14.9974 20.52 14.8774 20.82 14.6374C21.13 14.3974 21.285 14.0624 21.285 13.6324C21.285 13.2224 21.155 12.8974 20.895 12.6574C20.635 12.4074 20.28 12.2824 19.83 12.2824C19.27 12.2824 18.835 12.4474 18.525 12.7774C18.225 13.1074 18.065 13.5524 18.045 14.1124H16.095C16.135 13.0724 16.475 12.2474 17.115 11.6374C17.755 11.0274 18.66 10.7224 19.83 10.7224C20.91 10.7224 21.765 10.9724 22.395 11.4724C23.035 11.9724 23.355 12.6474 23.355 13.4974C23.355 14.5574 22.77 15.2774 21.6 15.6574V15.6874C22.99 16.0274 23.685 16.8874 23.685 18.2674C23.685 19.2874 23.32 20.0724 22.59 20.6224C21.86 21.1624 20.935 21.4324 19.815 21.4324Z" fill="#070707"/>
</svg>
