<svg width="24" height="25" viewBox="0 0 24 25" fill="none" xmlns="http://www.w3.org/2000/svg">
<path d="M16.7502 4.05561V2.49561C16.7502 2.08561 16.4102 1.74561 16.0002 1.74561C15.5902 1.74561 15.2502 2.08561 15.2502 2.49561V3.99561H8.75023V2.49561C8.75023 2.08561 8.41023 1.74561 8.00023 1.74561C7.59023 1.74561 7.25023 2.08561 7.25023 2.49561V4.05561C4.55023 4.30561 3.24023 5.91561 3.04023 8.30561C3.02023 8.59561 3.26023 8.83561 3.54023 8.83561H20.4602C20.7502 8.83561 20.9902 8.58561 20.9602 8.30561C20.7602 5.91561 19.4502 4.30561 16.7502 4.05561Z" fill="#D0D0D0"/>
<path d="M20 10.3356H4C3.45 10.3356 3 10.7856 3 11.3356V17.4956C3 20.4956 4.5 22.4956 8 22.4956H16C19.5 22.4956 21 20.4956 21 17.4956V11.3356C21 10.7856 20.55 10.3356 20 10.3356ZM9.21 18.7056C9.11 18.7956 9 18.8656 8.88 18.9156C8.76 18.9656 8.63 18.9956 8.5 18.9956C8.37 18.9956 8.24 18.9656 8.12 18.9156C8 18.8656 7.89 18.7956 7.79 18.7056C7.61 18.5156 7.5 18.2556 7.5 17.9956C7.5 17.7356 7.61 17.4756 7.79 17.2856C7.89 17.1956 8 17.1256 8.12 17.0756C8.36 16.9756 8.64 16.9756 8.88 17.0756C9 17.1256 9.11 17.1956 9.21 17.2856C9.39 17.4756 9.5 17.7356 9.5 17.9956C9.5 18.2556 9.39 18.5156 9.21 18.7056ZM9.42 14.8756C9.37 14.9956 9.3 15.1056 9.21 15.2056C9.11 15.2956 9 15.3656 8.88 15.4156C8.76 15.4656 8.63 15.4956 8.5 15.4956C8.37 15.4956 8.24 15.4656 8.12 15.4156C8 15.3656 7.89 15.2956 7.79 15.2056C7.7 15.1056 7.63 14.9956 7.58 14.8756C7.53 14.7556 7.5 14.6256 7.5 14.4956C7.5 14.3656 7.53 14.2356 7.58 14.1156C7.63 13.9956 7.7 13.8856 7.79 13.7856C7.89 13.6956 8 13.6256 8.12 13.5756C8.36 13.4756 8.64 13.4756 8.88 13.5756C9 13.6256 9.11 13.6956 9.21 13.7856C9.3 13.8856 9.37 13.9956 9.42 14.1156C9.47 14.2356 9.5 14.3656 9.5 14.4956C9.5 14.6256 9.47 14.7556 9.42 14.8756ZM12.71 15.2056C12.61 15.2956 12.5 15.3656 12.38 15.4156C12.26 15.4656 12.13 15.4956 12 15.4956C11.87 15.4956 11.74 15.4656 11.62 15.4156C11.5 15.3656 11.39 15.2956 11.29 15.2056C11.11 15.0156 11 14.7556 11 14.4956C11 14.2356 11.11 13.9756 11.29 13.7856C11.39 13.6956 11.5 13.6256 11.62 13.5756C11.86 13.4656 12.14 13.4656 12.38 13.5756C12.5 13.6256 12.61 13.6956 12.71 13.7856C12.89 13.9756 13 14.2356 13 14.4956C13 14.7556 12.89 15.0156 12.71 15.2056Z" fill="#D0D0D0"/>
</svg>
