<svg width="20" height="21" viewBox="0 0 20 21" fill="none" xmlns="http://www.w3.org/2000/svg">
<path d="M2.5 8.29903V13.1074C2.5 14.874 2.5 14.874 4.16667 15.999L8.75 18.649C9.44167 19.049 10.5667 19.049 11.25 18.649L15.8333 15.999C17.5 14.874 17.5 14.874 17.5 13.1157V8.29903C17.5 6.5407 17.5 6.5407 15.8333 5.4157L11.25 2.7657C10.5667 2.3657 9.44167 2.3657 8.75 2.7657L4.16667 5.4157C2.5 6.5407 2.5 6.5407 2.5 8.29903Z" stroke="#717171" stroke-width="1.5" stroke-linecap="round" stroke-linejoin="round"/>
<path d="M10 13.2074C11.3807 13.2074 12.5 12.0881 12.5 10.7074C12.5 9.32669 11.3807 8.2074 10 8.2074C8.61929 8.2074 7.5 9.32669 7.5 10.7074C7.5 12.0881 8.61929 13.2074 10 13.2074Z" stroke="#717171" stroke-width="1.5" stroke-linecap="round" stroke-linejoin="round"/>
</svg>
