<svg width="20" height="21" viewBox="0 0 20 21" fill="none" xmlns="http://www.w3.org/2000/svg">
<path d="M18.3335 6.12402H13.3335" stroke="#717171" stroke-width="1.5" stroke-miterlimit="10" stroke-linecap="round" stroke-linejoin="round"/>
<path d="M4.99984 6.12402H1.6665" stroke="#717171" stroke-width="1.5" stroke-miterlimit="10" stroke-linecap="round" stroke-linejoin="round"/>
<path d="M8.33317 9.04073C9.944 9.04073 11.2498 7.73489 11.2498 6.12406C11.2498 4.51323 9.944 3.2074 8.33317 3.2074C6.72234 3.2074 5.4165 4.51323 5.4165 6.12406C5.4165 7.73489 6.72234 9.04073 8.33317 9.04073Z" stroke="#717171" stroke-width="1.5" stroke-miterlimit="10" stroke-linecap="round" stroke-linejoin="round"/>
<path d="M18.3333 15.2908H15" stroke="#717171" stroke-width="1.5" stroke-miterlimit="10" stroke-linecap="round" stroke-linejoin="round"/>
<path d="M6.6665 15.2908H1.6665" stroke="#717171" stroke-width="1.5" stroke-miterlimit="10" stroke-linecap="round" stroke-linejoin="round"/>
<path d="M11.6667 18.2074C13.2775 18.2074 14.5833 16.9015 14.5833 15.2907C14.5833 13.6799 13.2775 12.374 11.6667 12.374C10.0558 12.374 8.75 13.6799 8.75 15.2907C8.75 16.9015 10.0558 18.2074 11.6667 18.2074Z" stroke="#717171" stroke-width="1.5" stroke-miterlimit="10" stroke-linecap="round" stroke-linejoin="round"/>
</svg>
