<svg width="16" height="17" viewBox="0 0 16 17" fill="none" xmlns="http://www.w3.org/2000/svg">
<path d="M14.3333 7.54077V11.5408C14.3333 14.2074 13.6667 14.8741 11 14.8741H4.33333C1.66667 14.8741 1 14.2074 1 11.5408V4.8741C1 2.20744 1.66667 1.54077 4.33333 1.54077H5.33333C6.33333 1.54077 6.55333 1.8341 6.93333 2.34077L7.93333 3.6741C8.18667 4.00744 8.33333 4.20744 9 4.20744H11C13.6667 4.20744 14.3333 4.8741 14.3333 7.54077Z" stroke="#787486" stroke-miterlimit="10"/>
<path d="M5.3335 1.54077H11.3335C12.6668 1.54077 13.3335 2.20744 13.3335 3.54077V4.46077" stroke="#787486" stroke-miterlimit="10" stroke-linecap="round" stroke-linejoin="round"/>
<path d="M9.33333 10.2075H6" stroke="#787486" stroke-miterlimit="10" stroke-linecap="round" stroke-linejoin="round"/>
</svg>
