<svg width="24" height="25" viewBox="0 0 24 25" fill="none" xmlns="http://www.w3.org/2000/svg">
<path d="M20.83 8.21742L14.28 2.97742C13 1.95742 11 1.94742 9.72996 2.96742L3.17996 8.21742C2.23996 8.96742 1.66996 10.4674 1.86996 11.6474L3.12996 19.1874C3.41996 20.8774 4.98996 22.2074 6.69996 22.2074H17.3C18.99 22.2074 20.59 20.8474 20.88 19.1774L22.14 11.6374C22.32 10.4674 21.75 8.96742 20.83 8.21742ZM12.75 18.2074C12.75 18.6174 12.41 18.9574 12 18.9574C11.59 18.9574 11.25 18.6174 11.25 18.2074V15.2074C11.25 14.7974 11.59 14.4574 12 14.4574C12.41 14.4574 12.75 14.7974 12.75 15.2074V18.2074Z" fill="#A1A1A1"/>
</svg>
