<svg width="16" height="17" viewBox="0 0 16 17" fill="none" xmlns="http://www.w3.org/2000/svg">
<path d="M8.00016 15.4141C7.54016 15.4141 7.10683 15.1808 6.80016 14.7741L5.80016 13.4408C5.78016 13.4141 5.70016 13.3808 5.66683 13.3741H5.3335C2.5535 13.3741 0.833496 12.6208 0.833496 8.8741V5.54077C0.833496 2.5941 2.38683 1.04077 5.3335 1.04077H10.6668C13.6135 1.04077 15.1668 2.5941 15.1668 5.54077V8.8741C15.1668 11.8208 13.6135 13.3741 10.6668 13.3741H10.3335C10.2802 13.3741 10.2335 13.4008 10.2002 13.4408L9.20016 14.7741C8.8935 15.1808 8.46016 15.4141 8.00016 15.4141ZM5.3335 2.04077C2.94683 2.04077 1.8335 3.1541 1.8335 5.54077V8.8741C1.8335 11.8874 2.86683 12.3741 5.3335 12.3741H5.66683C6.00683 12.3741 6.3935 12.5674 6.60016 12.8408L7.60016 14.1741C7.8335 14.4808 8.16683 14.4808 8.40016 14.1741L9.40016 12.8408C9.62016 12.5474 9.96683 12.3741 10.3335 12.3741H10.6668C13.0535 12.3741 14.1668 11.2608 14.1668 8.8741V5.54077C14.1668 3.1541 13.0535 2.04077 10.6668 2.04077H5.3335Z" fill="#787486"/>
<path d="M8.00016 8.2076C7.62683 8.2076 7.3335 7.9076 7.3335 7.54093C7.3335 7.17427 7.6335 6.87427 8.00016 6.87427C8.36683 6.87427 8.66683 7.17427 8.66683 7.54093C8.66683 7.9076 8.3735 8.2076 8.00016 8.2076Z" fill="#787486"/>
<path d="M10.6667 8.2076C10.2933 8.2076 10 7.9076 10 7.54093C10 7.17427 10.3 6.87427 10.6667 6.87427C11.0333 6.87427 11.3333 7.17427 11.3333 7.54093C11.3333 7.9076 11.04 8.2076 10.6667 8.2076Z" fill="#787486"/>
<path d="M5.33317 8.2076C4.95984 8.2076 4.6665 7.9076 4.6665 7.54093C4.6665 7.17427 4.9665 6.87427 5.33317 6.87427C5.69984 6.87427 5.99984 7.17427 5.99984 7.54093C5.99984 7.9076 5.7065 8.2076 5.33317 8.2076Z" fill="#787486"/>
</svg>
