<svg width="20" height="21" viewBox="0 0 20 21" fill="none" xmlns="http://www.w3.org/2000/svg">
<mask id="mask0_3755_2830" style="mask-type:alpha" maskUnits="userSpaceOnUse" x="0" y="0" width="20" height="21">
<rect y="0.71167" width="20" height="20" fill="#D9D9D9"/>
</mask>
<g mask="url(#mask0_3755_2830)">
<path d="M4.99967 12.3783C4.54134 12.3783 4.14898 12.2151 3.82259 11.8887C3.4962 11.5623 3.33301 11.1699 3.33301 10.7116C3.33301 10.2533 3.4962 9.86089 3.82259 9.53451C4.14898 9.20812 4.54134 9.04492 4.99967 9.04492C5.45801 9.04492 5.85037 9.20812 6.17676 9.53451C6.50315 9.86089 6.66634 10.2533 6.66634 10.7116C6.66634 11.1699 6.50315 11.5623 6.17676 11.8887C5.85037 12.2151 5.45801 12.3783 4.99967 12.3783ZM9.99967 12.3783C9.54134 12.3783 9.14898 12.2151 8.82259 11.8887C8.4962 11.5623 8.33301 11.1699 8.33301 10.7116C8.33301 10.2533 8.4962 9.86089 8.82259 9.53451C9.14898 9.20812 9.54134 9.04492 9.99967 9.04492C10.458 9.04492 10.8504 9.20812 11.1768 9.53451C11.5031 9.86089 11.6663 10.2533 11.6663 10.7116C11.6663 11.1699 11.5031 11.5623 11.1768 11.8887C10.8504 12.2151 10.458 12.3783 9.99967 12.3783ZM14.9997 12.3783C14.5413 12.3783 14.149 12.2151 13.8226 11.8887C13.4962 11.5623 13.333 11.1699 13.333 10.7116C13.333 10.2533 13.4962 9.86089 13.8226 9.53451C14.149 9.20812 14.5413 9.04492 14.9997 9.04492C15.458 9.04492 15.8504 9.20812 16.1768 9.53451C16.5031 9.86089 16.6663 10.2533 16.6663 10.7116C16.6663 11.1699 16.5031 11.5623 16.1768 11.8887C15.8504 12.2151 15.458 12.3783 14.9997 12.3783Z" fill="#ACACAC"/>
</g>
</svg>
