<svg width="20" height="21" viewBox="0 0 20 21" fill="none" xmlns="http://www.w3.org/2000/svg">
<mask id="mask0_985_721" style="mask-type:alpha" maskUnits="userSpaceOnUse" x="0" y="0" width="20" height="21">
<rect y="0.207397" width="20" height="20" fill="#D9D9D9"/>
</mask>
<g mask="url(#mask0_985_721)">
<path d="M5.00016 11.8741C4.54183 11.8741 4.14947 11.7109 3.82308 11.3845C3.49669 11.0581 3.3335 10.6658 3.3335 10.2074C3.3335 9.7491 3.49669 9.35674 3.82308 9.03035C4.14947 8.70397 4.54183 8.54077 5.00016 8.54077C5.4585 8.54077 5.85086 8.70397 6.17725 9.03035C6.50363 9.35674 6.66683 9.7491 6.66683 10.2074C6.66683 10.6658 6.50363 11.0581 6.17725 11.3845C5.85086 11.7109 5.4585 11.8741 5.00016 11.8741ZM10.0002 11.8741C9.54183 11.8741 9.14947 11.7109 8.82308 11.3845C8.49669 11.0581 8.3335 10.6658 8.3335 10.2074C8.3335 9.7491 8.49669 9.35674 8.82308 9.03035C9.14947 8.70397 9.54183 8.54077 10.0002 8.54077C10.4585 8.54077 10.8509 8.70397 11.1772 9.03035C11.5036 9.35674 11.6668 9.7491 11.6668 10.2074C11.6668 10.6658 11.5036 11.0581 11.1772 11.3845C10.8509 11.7109 10.4585 11.8741 10.0002 11.8741ZM15.0002 11.8741C14.5418 11.8741 14.1495 11.7109 13.8231 11.3845C13.4967 11.0581 13.3335 10.6658 13.3335 10.2074C13.3335 9.7491 13.4967 9.35674 13.8231 9.03035C14.1495 8.70397 14.5418 8.54077 15.0002 8.54077C15.4585 8.54077 15.8509 8.70397 16.1772 9.03035C16.5036 9.35674 16.6668 9.7491 16.6668 10.2074C16.6668 10.6658 16.5036 11.0581 16.1772 11.3845C15.8509 11.7109 15.4585 11.8741 15.0002 11.8741Z" fill="#1C1B1F"/>
</g>
</svg>
