<svg width="24" height="25" viewBox="0 0 24 25" fill="none" xmlns="http://www.w3.org/2000/svg">
<path d="M16 4.4574C16 5.6974 14.99 6.7074 13.75 6.7074H10.25C9.63 6.7074 9.07 6.4574 8.66 6.0474C8.25 5.6374 8 5.0774 8 4.4574C8 3.2174 9.01 2.2074 10.25 2.2074H13.75C14.37 2.2074 14.93 2.4574 15.34 2.8674C15.75 3.2774 16 3.8374 16 4.4574Z" fill="#A1A1A1"/>
<path d="M18.83 5.23736C18.6 5.04736 18.34 4.89736 18.06 4.78736C17.77 4.67736 17.48 4.90736 17.42 5.20736C17.08 6.91736 15.57 8.20736 13.75 8.20736H10.25C9.25 8.20736 8.31 7.81736 7.6 7.10736C7.08 6.58736 6.72 5.92736 6.58 5.21736C6.52 4.91736 6.22 4.67736 5.93 4.79736C4.77 5.26736 4 6.32736 4 8.45736V18.2074C4 21.2074 5.79 22.2074 8 22.2074H16C18.21 22.2074 20 21.2074 20 18.2074V8.45736C20 6.82736 19.55 5.82736 18.83 5.23736ZM8 12.4574H12C12.41 12.4574 12.75 12.7974 12.75 13.2074C12.75 13.6174 12.41 13.9574 12 13.9574H8C7.59 13.9574 7.25 13.6174 7.25 13.2074C7.25 12.7974 7.59 12.4574 8 12.4574ZM16 17.9574H8C7.59 17.9574 7.25 17.6174 7.25 17.2074C7.25 16.7974 7.59 16.4574 8 16.4574H16C16.41 16.4574 16.75 16.7974 16.75 17.2074C16.75 17.6174 16.41 17.9574 16 17.9574Z" fill="#A1A1A1"/>
</svg>
