<svg width="20" height="21" viewBox="0 0 20 21" fill="none" xmlns="http://www.w3.org/2000/svg">
<path d="M15.925 11.8324L4.075 11.8324C2.95 11.8324 2.5 12.3074 2.5 13.5074L2.5 16.5324C2.5 17.7324 2.95 18.2074 4.075 18.2074L15.925 18.2074C17.05 18.2074 17.5 17.7324 17.5 16.5324L17.5 13.5074C17.5 12.3074 17.05 11.8324 15.925 11.8324Z" fill="#787486"/>
<path d="M15.925 3.2074L4.075 3.2074C2.95 3.2074 2.5 3.6824 2.5 4.8824L2.5 7.9074C2.5 9.09906 2.95 9.5824 4.075 9.5824L15.925 9.5824C17.05 9.5824 17.5 9.1074 17.5 7.9074L17.5 4.8824C17.5 3.6824 17.05 3.2074 15.925 3.2074Z" fill="#787486"/>
</svg>
