<svg width="24" height="25" viewBox="0 0 24 25" fill="none" xmlns="http://www.w3.org/2000/svg">
<path d="M9 2.2074C6.38 2.2074 4.25 4.3374 4.25 6.9574C4.25 9.5274 6.26 11.6074 8.88 11.6974C8.96 11.6874 9.04 11.6874 9.1 11.6974C9.12 11.6974 9.13 11.6974 9.15 11.6974C9.16 11.6974 9.16 11.6974 9.17 11.6974C11.73 11.6074 13.74 9.5274 13.75 6.9574C13.75 4.3374 11.62 2.2074 9 2.2074Z" fill="#A1A1A1"/>
<path d="M14.08 14.3574C11.29 12.4974 6.73996 12.4974 3.92996 14.3574C2.65996 15.2074 1.95996 16.3574 1.95996 17.5874C1.95996 18.8174 2.65996 19.9574 3.91996 20.7974C5.31996 21.7374 7.15996 22.2074 8.99996 22.2074C10.84 22.2074 12.68 21.7374 14.08 20.7974C15.34 19.9474 16.04 18.8074 16.04 17.5674C16.03 16.3374 15.34 15.1974 14.08 14.3574Z" fill="#A1A1A1"/>
<path d="M19.9901 7.54738C20.1501 9.48738 18.7701 11.1874 16.8601 11.4174C16.8501 11.4174 16.8501 11.4174 16.8401 11.4174H16.8101C16.7501 11.4174 16.6901 11.4174 16.6401 11.4374C15.6701 11.4874 14.7801 11.1774 14.1101 10.6074C15.1401 9.68737 15.7301 8.30737 15.6101 6.80737C15.5401 5.99738 15.2601 5.25738 14.8401 4.62738C15.2201 4.43738 15.6601 4.31738 16.1101 4.27738C18.0701 4.10738 19.8201 5.56738 19.9901 7.54738Z" fill="#A1A1A1"/>
<path d="M21.99 16.7974C21.91 17.7674 21.29 18.6074 20.25 19.1774C19.25 19.7274 17.99 19.9874 16.74 19.9574C17.46 19.3074 17.88 18.4974 17.96 17.6374C18.06 16.3974 17.47 15.2074 16.29 14.2574C15.62 13.7274 14.84 13.3074 13.99 12.9974C16.2 12.3574 18.98 12.7874 20.69 14.1674C21.61 14.9074 22.08 15.8374 21.99 16.7974Z" fill="#A1A1A1"/>
</svg>
