<svg width="40" height="41" viewBox="0 0 40 41" fill="none" xmlns="http://www.w3.org/2000/svg">
<rect y="0.495605" width="40" height="40" rx="20" fill="#C27ED2"/>
<path d="M9.54344 25.4956V15.4856H12.3994L13.8134 20.5116C13.9161 20.8849 14.0188 21.3003 14.1214 21.7576C14.2334 22.2056 14.3174 22.5603 14.3734 22.8216L14.4434 23.2136H14.4714C14.6488 22.2523 14.8541 21.3516 15.0874 20.5116L16.5014 15.4856H19.3994V25.4956H17.5094V19.7556L17.5934 17.6836H17.5654C17.4161 18.4676 17.2714 19.1023 17.1314 19.5876L15.4094 25.4956H13.4634L11.7834 19.5876L11.3494 17.6836H11.3214C11.3774 18.5236 11.4054 19.2143 11.4054 19.7556V25.4956H9.54344ZM23.1578 25.4956L20.2458 15.4856H22.3178L23.6198 20.4556L24.0538 22.6396H24.0818C24.2498 21.8089 24.4038 21.0996 24.5438 20.5116L25.6358 15.4856H27.5958L28.6878 20.4976L29.1498 22.6396H29.1778C29.3738 21.7529 29.5371 21.0203 29.6678 20.4416L30.9278 15.4856H32.9298L30.0738 25.4956H28.1838L26.9658 20.1336L26.6158 18.3556H26.5878C26.4851 19.0556 26.3778 19.6483 26.2658 20.1336L25.0338 25.4956H23.1578Z" fill="black"/>
</svg>
