<svg width="24" height="25" viewBox="0 0 24 25" fill="none" xmlns="http://www.w3.org/2000/svg">
<path d="M20.1 9.42746C18.29 9.42746 17.55 8.14746 18.45 6.57746C18.97 5.66746 18.66 4.50746 17.75 3.98746L16.02 2.99746C15.23 2.52746 14.21 2.80746 13.74 3.59746L13.63 3.78746C12.73 5.35746 11.25 5.35746 10.34 3.78746L10.23 3.59746C9.78 2.80746 8.76 2.52746 7.97 2.99746L6.24 3.98746C5.33 4.50746 5.02 5.67746 5.54 6.58746C6.45 8.14746 5.71 9.42746 3.9 9.42746C2.86 9.42746 2 10.2775 2 11.3275V13.0875C2 14.1275 2.85 14.9875 3.9 14.9875C5.71 14.9875 6.45 16.2675 5.54 17.8375C5.02 18.7475 5.33 19.9075 6.24 20.4275L7.97 21.4175C8.76 21.8875 9.78 21.6075 10.25 20.8175L10.36 20.6275C11.26 19.0575 12.74 19.0575 13.65 20.6275L13.76 20.8175C14.23 21.6075 15.25 21.8875 16.04 21.4175L17.77 20.4275C18.68 19.9075 18.99 18.7375 18.47 17.8375C17.56 16.2675 18.3 14.9875 20.11 14.9875C21.15 14.9875 22.01 14.1375 22.01 13.0875V11.3275C22 10.2875 21.15 9.42746 20.1 9.42746ZM12 15.4575C10.21 15.4575 8.75 13.9975 8.75 12.2075C8.75 10.4175 10.21 8.95746 12 8.95746C13.79 8.95746 15.25 10.4175 15.25 12.2075C15.25 13.9975 13.79 15.4575 12 15.4575Z" fill="#A1A1A1"/>
</svg>
