<svg width="16" height="17" viewBox="0 0 16 17" fill="none" xmlns="http://www.w3.org/2000/svg">
<path d="M6.10622 8.4541C6.08622 8.4541 6.07288 8.4541 6.05288 8.4541C6.01955 8.44744 5.97288 8.44744 5.93288 8.4541C3.99955 8.3941 2.53955 6.8741 2.53955 5.00077C2.53955 3.0941 4.09288 1.54077 5.99955 1.54077C7.90622 1.54077 9.45955 3.0941 9.45955 5.00077C9.45288 6.8741 7.98622 8.3941 6.12622 8.4541C6.11955 8.4541 6.11288 8.4541 6.10622 8.4541ZM5.99955 2.54077C4.64622 2.54077 3.53955 3.64744 3.53955 5.00077C3.53955 6.3341 4.57955 7.40744 5.90622 7.4541C5.94622 7.44744 6.03288 7.44744 6.11955 7.4541C7.42622 7.3941 8.45288 6.32077 8.45955 5.00077C8.45955 3.64744 7.35288 2.54077 5.99955 2.54077Z" fill="#787486"/>
<path d="M11.0266 8.54069C11.0066 8.54069 10.9866 8.54069 10.9666 8.53402C10.6932 8.56069 10.4132 8.36736 10.3866 8.09402C10.3599 7.82069 10.5266 7.57402 10.7999 7.54069C10.8799 7.53402 10.9666 7.53402 11.0399 7.53402C12.0132 7.48069 12.7732 6.68069 12.7732 5.70069C12.7732 4.68736 11.9532 3.86736 10.9399 3.86736C10.6666 3.87402 10.4399 3.64736 10.4399 3.37402C10.4399 3.10069 10.6666 2.87402 10.9399 2.87402C12.4999 2.87402 13.7732 4.14736 13.7732 5.70736C13.7732 7.24069 12.5732 8.48069 11.0466 8.54069C11.0399 8.54069 11.0332 8.54069 11.0266 8.54069Z" fill="#787486"/>
<path d="M6.11307 15.7407C4.80641 15.7407 3.49307 15.4074 2.49974 14.7407C1.57307 14.1274 1.06641 13.2874 1.06641 12.374C1.06641 11.4607 1.57307 10.614 2.49974 9.99402C4.49974 8.66736 7.73974 8.66736 9.72641 9.99402C10.6464 10.6074 11.1597 11.4474 11.1597 12.3607C11.1597 13.274 10.6531 14.1207 9.72641 14.7407C8.72641 15.4074 7.41974 15.7407 6.11307 15.7407ZM3.05307 10.834C2.41307 11.2607 2.06641 11.8074 2.06641 12.3807C2.06641 12.9474 2.41974 13.494 3.05307 13.914C4.71307 15.0274 7.51307 15.0274 9.17307 13.914C9.81307 13.4874 10.1597 12.9407 10.1597 12.3674C10.1597 11.8007 9.80641 11.254 9.17307 10.834C7.51307 9.72736 4.71307 9.72736 3.05307 10.834Z" fill="#787486"/>
<path d="M12.2263 14.5407C11.993 14.5407 11.7863 14.3807 11.7396 14.1407C11.6863 13.8674 11.8596 13.6074 12.1263 13.5474C12.5463 13.4607 12.933 13.2941 13.233 13.0607C13.613 12.7741 13.8196 12.4141 13.8196 12.0341C13.8196 11.6541 13.613 11.2941 13.2396 11.0141C12.9463 10.7874 12.5796 10.6274 12.1463 10.5274C11.8796 10.4674 11.7063 10.2007 11.7663 9.92741C11.8263 9.66074 12.093 9.48741 12.3663 9.54741C12.9396 9.67408 13.4396 9.90074 13.8463 10.2141C14.4663 10.6807 14.8196 11.3407 14.8196 12.0341C14.8196 12.7274 14.4596 13.3874 13.8396 13.8607C13.4263 14.1807 12.9063 14.4141 12.333 14.5274C12.293 14.5407 12.2596 14.5407 12.2263 14.5407Z" fill="#787486"/>
</svg>
