<svg width="150" height="45" viewBox="0 0 150 45" fill="none" xmlns="http://www.w3.org/2000/svg">
<path d="M145.89 28.0291H148.988L143.891 32.8546L149.371 38.1614H146.224L141.768 33.8049V38.1614H139.127V21.1796H141.768V31.892L145.89 28.0291Z" fill="white"/>
<path d="M127.652 33.7185C127.668 34.2533 127.796 34.7346 128.034 35.1624C128.273 35.5903 128.622 35.9276 129.083 36.1744C129.552 36.413 130.124 36.5323 130.799 36.5323C131.383 36.5323 131.885 36.4542 132.304 36.2979C132.732 36.1333 133.086 35.94 133.366 35.7178C133.645 35.4874 133.851 35.2735 133.983 35.0761L135.155 36.6681C134.9 37.0137 134.579 37.3222 134.193 37.5937C133.806 37.8652 133.325 38.075 132.749 38.2231C132.181 38.3795 131.477 38.4576 130.638 38.4576C129.536 38.4576 128.577 38.2314 127.763 37.7788C126.948 37.3263 126.315 36.6887 125.862 35.8659C125.418 35.0431 125.196 34.0805 125.196 32.978C125.196 31.9907 125.401 31.1021 125.813 30.3122C126.224 29.5142 126.821 28.8848 127.602 28.424C128.392 27.9633 129.338 27.7329 130.441 27.7329C131.469 27.7329 132.362 27.9386 133.119 28.35C133.876 28.7613 134.46 29.3537 134.871 30.1271C135.291 30.8923 135.501 31.8179 135.501 32.904C135.501 32.9698 135.497 33.1055 135.488 33.3112C135.488 33.5169 135.48 33.6527 135.464 33.7185H127.652ZM133.032 31.7932C133.024 31.5299 132.934 31.2296 132.761 30.8923C132.596 30.555 132.329 30.2629 131.959 30.0161C131.588 29.761 131.095 29.6335 130.478 29.6335C129.844 29.6335 129.33 29.7569 128.935 30.0037C128.54 30.2423 128.248 30.5303 128.059 30.8676C127.87 31.1967 127.759 31.5053 127.726 31.7932H133.032Z" fill="white"/>
<path d="M117.865 38.1614H115.236V28.0291H117.865V29.7199H117.803C117.861 29.5142 118.017 29.2591 118.272 28.9547C118.535 28.642 118.898 28.3623 119.358 28.1155C119.819 27.8604 120.374 27.7329 121.024 27.7329C121.493 27.7329 121.913 27.7987 122.283 27.9303C122.653 28.062 122.917 28.1936 123.073 28.3253L122.012 30.4974C121.905 30.3657 121.703 30.2382 121.407 30.1148C121.119 29.9831 120.761 29.9173 120.333 29.9173C119.798 29.9173 119.346 30.0736 118.976 30.3863C118.614 30.6989 118.338 31.0733 118.149 31.5094C117.96 31.9454 117.865 32.3527 117.865 32.7312V38.1614Z" fill="white"/>
<path d="M105.405 24.1909H101.172V21.8707H112.242V24.1909H108.009V38.1614H105.405V24.1909Z" fill="white"/>
<path d="M95.5429 28.0291H98.6406L93.5436 32.8546L99.0232 38.1614H95.8761L91.4209 33.8049V38.1614H88.7798V21.1796H91.4209V31.892L95.5429 28.0291Z" fill="white"/>
<path d="M81.2729 27.7329C81.8406 27.7329 82.3672 27.7864 82.8526 27.8933C83.338 28.0003 83.7535 28.1278 84.0991 28.2759C84.4447 28.424 84.6833 28.5474 84.8149 28.6462L83.8523 30.2752C83.6877 30.1354 83.3915 29.9749 82.9637 29.7939C82.5441 29.6129 82.071 29.5224 81.5444 29.5224C81.0178 29.5224 80.5736 29.617 80.2115 29.8062C79.8495 29.9955 79.6685 30.2793 79.6685 30.6578C79.6685 31.0281 79.8577 31.3242 80.2362 31.5464C80.6229 31.7685 81.1454 31.9537 81.8036 32.1018C82.3466 32.2252 82.865 32.398 83.3586 32.6201C83.8523 32.834 84.2554 33.1426 84.5681 33.5457C84.889 33.9406 85.0494 34.4713 85.0494 35.1378C85.0494 35.7713 84.9136 36.302 84.6421 36.7298C84.3788 37.1494 84.025 37.4868 83.5808 37.7418C83.1365 37.9969 82.6428 38.1779 82.0998 38.2848C81.565 38.4 81.0261 38.4576 80.483 38.4576C79.8166 38.4576 79.2201 38.3918 78.6935 38.2602C78.1752 38.1285 77.7432 37.9763 77.3977 37.8035C77.0521 37.6225 76.8053 37.4703 76.6572 37.3469L77.6198 35.5203C77.8337 35.726 78.1834 35.9441 78.6689 36.1744C79.1543 36.3966 79.6973 36.5077 80.2979 36.5077C80.9397 36.5077 81.4539 36.3843 81.8406 36.1374C82.2273 35.8906 82.4207 35.5615 82.4207 35.1501C82.4207 34.8457 82.326 34.5989 82.1368 34.4096C81.9558 34.2204 81.7049 34.0682 81.384 33.953C81.0631 33.8378 80.7052 33.7349 80.3103 33.6444C79.94 33.5539 79.5657 33.4388 79.1872 33.2989C78.817 33.1508 78.4755 32.9615 78.1629 32.7312C77.8502 32.4926 77.5993 32.1964 77.41 31.8426C77.2208 31.4888 77.1262 31.0733 77.1262 30.5961C77.1262 29.9873 77.3195 29.4689 77.7062 29.0411C78.0929 28.6132 78.603 28.2882 79.2366 28.0661C79.8701 27.844 80.5489 27.7329 81.2729 27.7329Z" fill="white"/>
<path d="M70.2146 38.1614V36.2855C70.1487 36.483 69.9595 36.7545 69.6469 37.1001C69.3424 37.4456 68.9228 37.7583 68.388 38.038C67.8615 38.3177 67.2362 38.4576 66.5121 38.4576C65.5659 38.4576 64.7144 38.2314 63.9574 37.7788C63.2005 37.3263 62.604 36.6969 62.1679 35.8906C61.7319 35.0843 61.5138 34.1546 61.5138 33.1014C61.5138 32.0483 61.7319 31.1186 62.1679 30.3122C62.604 29.5059 63.2005 28.8765 63.9574 28.424C64.7144 27.9633 65.5659 27.7329 66.5121 27.7329C67.2197 27.7329 67.8327 27.8563 68.351 28.1031C68.8693 28.35 69.2848 28.6338 69.5975 28.9547C69.9184 29.2756 70.1158 29.5553 70.1899 29.7939V28.0291H72.8063V38.1614H70.2146ZM64.1179 33.1014C64.1179 33.7514 64.2619 34.3191 64.5498 34.8045C64.8378 35.29 65.2122 35.6643 65.6729 35.9276C66.1419 36.1909 66.6438 36.3225 67.1786 36.3225C67.7545 36.3225 68.2646 36.1868 68.7089 35.9153C69.1614 35.6438 69.5152 35.2694 69.7703 34.7922C70.0336 34.3068 70.1652 33.7432 70.1652 33.1014C70.1652 32.4597 70.0336 31.9002 69.7703 31.423C69.5152 30.9375 69.1614 30.5591 68.7089 30.2876C68.2646 30.0078 67.7545 29.868 67.1786 29.868C66.6438 29.868 66.1419 30.0037 65.6729 30.2752C65.2122 30.5385 64.8378 30.9129 64.5498 31.3983C64.2619 31.8837 64.1179 32.4514 64.1179 33.1014Z" fill="white"/>
<path d="M53.3945 24.1909H49.1614V21.8707H60.2317V24.1909H55.9985V38.1614H53.3945V24.1909Z" fill="white"/>
<rect x="12.5854" y="13.2621" width="29.5491" height="29.6723" rx="5.36585" fill="#B884CC"/>
<path fill-rule="evenodd" clip-rule="evenodd" d="M4.49229 1.49158C3.30698 1.49158 2.34595 2.45248 2.34595 3.63792V9.7742C2.34595 10.9596 3.30698 11.9205 4.49229 11.9205H5.11272V8.53229C5.11272 6.16155 7.03452 4.23961 9.4054 4.23961H12.5853V3.63792C12.5853 2.45248 11.6243 1.49158 10.439 1.49158H4.49229Z" fill="#F8CD63"/>
<path fill-rule="evenodd" clip-rule="evenodd" d="M9.68729 5.61548C7.90932 5.61548 6.46777 7.0569 6.46777 8.83499V20.1473C6.46777 21.9254 7.90932 23.3668 9.68729 23.3668H10.1547V18.3691C10.1547 14.2202 13.5181 10.8569 17.6669 10.8569H24.7478V8.83499C24.7478 7.0569 23.3063 5.61548 21.5283 5.61548H9.68729Z" fill="#65B583"/>
<path fill-rule="evenodd" clip-rule="evenodd" d="M27.6483 29.0653L34.3802 28.9202C34.7949 28.9112 35.1239 28.5679 35.1151 28.1531C35.1062 27.7383 34.7627 27.4091 34.3478 27.4181L27.9671 27.5557C27.7626 27.1171 27.3177 26.8132 26.8019 26.8132C26.6975 26.8132 26.5961 26.8256 26.499 26.849L17.9581 17.8618C17.7132 17.604 17.3056 17.5936 17.0478 17.8386C16.79 18.0836 16.7796 18.4911 17.0246 18.7489L25.5678 27.7385C25.5345 27.8527 25.5167 27.9734 25.5167 28.0983C25.5167 28.278 25.5536 28.4491 25.6202 28.6044L20.5705 34.2485C20.3729 34.4694 20.3917 34.8086 20.6126 35.0062C20.8335 35.2038 21.1727 35.1849 21.3703 34.9641L26.4159 29.3245C26.5377 29.3628 26.6674 29.3834 26.8019 29.3834C27.1261 29.3834 27.4222 29.2634 27.6483 29.0653Z" fill="white"/>
</svg>
